<?xml version='1.0' encoding='utf-8'?>
<mxfile host="app.diagrams.net"><diagram name="CanvasExport"><mxGraphModel><root><mxCell id="0" /><mxCell id="1" parent="0" /><mxCell id="2" value="" style="shape=polyline;strokeColor=#000000;fillColor=none;" vertex="1" parent="1"><mxGeometry as_="geometry" points="40,280 80,280 80,180 120,242 160,180 160,280 200,280 200,140 160,140 120,190 80,140 40,140 40,280" relative="1" width="0" height="0" /></mxCell></root></mxGraphModel></diagram></mxfile>